<svg width="480" height="480" xmlns="http://www.w3.org/2000/svg" style="background-color:#02162b">
    <title>tmdb_logo</title>
    <defs>
        <linearGradient x1="0" y2="0.5" x2="0.9997" y1="0.5" id="linear-gradient">
            <stop stop-color="#90cea1" offset="0" />
            <stop stop-color="#3cbec9" offset="0.56" />
            <stop stop-color="#00b3e5" offset="1" />
        </linearGradient>
    </defs>
    <g>
        <title>Layer 1</title>
        <g stroke-width="44" data-name="Layer 2" id="Layer_2" stroke="null"
            transform="rotate(-0.0237615 240 240)">
            <g data-name="Layer 1" id="Layer_1-2" stroke="null">
                <path id="svg_1" fill="url(#linear-gradient)"
                    d="m161.75361,239.99963l0,0a33.32577,39.93722 0 0 1 33.32577,-40.00502l-0.1886,0a33.32577,39.93722 0 0 1 33.32577,40.00502l0,0a33.32577,39.93722 0 0 1 -33.32577,39.93722l0.1886,0a33.32577,39.93722 0 0 1 -33.32577,-39.93722zm155.91629,-70.81115l62.04967,0a33.32577,39.93722 0 0 0 33.32577,-39.93722l0,0a33.32577,39.93722 0 0 0 -33.32577,-40.00502l-62.04967,0a33.32577,39.93722 0 0 0 -33.32577,40.00502l0,0a33.32577,39.93722 0 0 0 33.32577,39.93722zm-213.11891,221.49673l120.51592,0a33.32577,39.93722 0 0 0 33.32577,-39.93722l0,0a33.32577,39.93722 0 0 0 -33.32577,-40.00502l-120.51592,0a33.32577,39.93722 0 0 0 -33.32577,40.00502l0,0a33.32577,39.93722 0 0 0 33.32577,39.93722zm158.2738,-110.74836l11.78755,0l27.53572,-79.94224l-15.74817,0l-16.78547,52.43596l-0.1886,0l-16.50257,-52.43596l-16.78547,0l26.68702,79.94224l-0.00001,0zm61.20096,0l14.71086,0l0,-79.94224l-14.71086,0l0,79.94224zm41.86938,0l47.0559,0l0,-16.20543l-32.34504,0l0,-16.27323l28.95023,0l0,-16.27323l-28.95023,0l0,-14.91713l30.64763,0l0,-16.27323l-45.26419,0l-0.0943,79.94224l0,-0.00001l0,0.00002zm-281.3924,-110.68056l14.71086,0l0,-64.41486l19.04868,0l0,-15.59518l-52.80823,0l0,15.59518l19.04868,0l0,64.41486l0.00001,0zm54.50563,0l14.71086,0l0,-34.58061l28.47872,0l0,34.58061l14.71086,0l0,-80.01004l-14.71086,0l0,29.83425l-28.57303,0l0,-29.83425l-14.61657,0l0,80.01004l0.00001,0l0.00001,0zm77.79783,0l47.15021,0l0,-16.27323l-32.53364,0l0,-16.27323l28.95023,0l0,-16.27323l-28.95023,0l0,-14.91713l30.64763,0l0,-16.27323l-45.26419,0l0,80.01004l-0.00001,-0.00001l0,0.00002zm-148.99464,110.74836l14.61657,0l0,-61.36363l0.1886,0l16.97407,61.36363l11.12745,0l17.53987,-61.36363l0.1886,0l0,61.36363l14.71086,0l0,-80.01004l-22.16059,0l-15.46526,52.20994l-0.1886,0l-15.37097,-52.20994l-22.2549,0l0.0943,80.01004zm211.40265,110.74836l23.87687,0a46.37694,55.57759 0 0 0 14.25822,-2.5992a36.81487,44.11853 0 0 0 11.97615,-7.61678a30.87395,36.99899 0 0 0 8.24186,-12.43094a31.8924,38.21949 0 0 0 3.24394,-17.1321a34.89115,41.81316 0 0 0 -3.1685,-18.64641a28.47872,34.12857 0 0 0 -8.52475,-12.49874a34.98545,41.92617 0 0 0 -12.69284,-6.82572a63.25671,75.80612 0 0 0 -15.22008,-2.26017l-22.08515,0l0.0943,80.01004l-0.00001,0.00001l-0.00001,0.00001zm14.72972,-63.73681l8.67564,0a32.87312,39.39477 0 0 1 8.80766,1.4013a22.02857,26.39879 0 0 1 7.31771,4.24912a16.97407,20.34153 0 0 1 4.94134,7.18735a18.6149,22.30788 0 0 1 1.88601,10.21597a22.48121,26.94124 0 0 1 -1.88601,11.48167a16.38941,19.64089 0 0 1 -5.03564,7.54897a20.50091,24.56805 0 0 1 -7.54404,4.13612a40.68119,48.75188 0 0 1 -9.43004,1.2431l-7.82693,0l0.0943,-47.46359l-0.00001,0l0.00001,-0.00001zm68.16033,63.73681l27.34712,0a43.58565,52.23255 0 0 0 8.92082,-1.13009a25.23479,30.24109 0 0 0 8.05326,-3.72928a17.7662,21.29081 0 0 0 5.84662,-6.78051a16.06879,19.25666 0 0 0 2.26321,-10.57759a17.27583,20.70316 0 0 0 -1.03731,-7.23255a14.692,17.60673 0 0 0 -2.96103,-5.92164a15.80475,18.94023 0 0 0 -4.62072,-4.18132a18.86008,22.6017 0 0 0 -5.99751,-2.26017l0,-0.22601a17.50216,20.97439 0 0 0 8.35502,-6.37368a13.99418,16.77046 0 0 0 3.14963,-11.30086a15.7293,18.84982 0 0 0 -2.16891,-10.5098a14.86175,17.81014 0 0 0 -5.65802,-6.17026a24.32951,29.1562 0 0 0 -7.86466,-2.93822a64.9164,77.79508 0 0 0 -8.73222,-0.72325l-24.89531,0l0,80.05525l0.00001,-0.00001l0,-0.00001zm14.71086,-65.09291l9.99585,0a20.35002,24.38724 0 0 1 3.48912,0.38423a10.88227,13.04118 0 0 1 3.20621,1.3109a6.2804,7.52637 0 0 1 2.31979,2.55399a6.07295,7.27775 0 0 1 0.88642,4.11351a6.84621,8.20442 0 0 1 -0.79213,4.06831a6.29927,7.54897 0 0 1 -2.13119,2.71221a9.01512,10.80362 0 0 1 -2.96103,1.46911a15.38983,18.44299 0 0 1 -3.3571,0.45204l-10.82569,0l0.16974,-17.06429l0.00001,-0.00001zm0,31.98141l11.12745,0a28.51644,34.17378 0 0 1 3.86632,0.33902a14.76744,17.69713 0 0 1 3.77201,1.2431a7.54404,9.04069 0 0 1 2.9799,2.6444a5.9032,7.07434 0 0 1 1.16933,4.52034a6.99709,8.38523 0 0 1 -0.88642,4.40733a7.54404,9.04069 0 0 1 -2.31979,2.93822a9.01512,10.80362 0 0 1 -3.14963,1.58212a16.80434,20.13812 0 0 1 -3.45139,0.45204l-13.20206,0l0.0943,-18.12657l-0.00002,0z"
                    class="cls-1" stroke="null" />
            </g>
        </g>
    </g>
</svg>