<svg xmlns="http://www.w3.org/2000/svg" enable-background="new 0 0 48 48" viewBox="0 0 48 48"><path fill="#fb8c00" d="M34.842 22.488C34.398 24.44 34 25 32.738 25c-1.657 0-2.879-1.149-2.879-2.519s1.343-2.481 3-2.481C34.818 20 35.295 20.497 34.842 22.488zM13.158 22.488C13.602 24.44 14 25 15.262 25c1.657 0 2.879-1.149 2.879-2.519S16.798 20 15.141 20C13.182 20 12.705 20.497 13.158 22.488z"/><path fill="#bf360c" d="M37.017,37.121C35.615,35.208,28,32,28,32h-4h-4c0,0-7.615,3.208-9.017,5.121C9.289,39.433,9,43,9,43
	h30C39,43,38.711,39.433,37.017,37.121z"/><path fill="#fb8c00" d="M20,23v9c0,2.959,4,5,4,5s4-2.011,4-5v-9H20z"/><path fill="#ffb74d" d="M14 17.746C14 27.739 19.381 32 24 32V9C18.212 9 14 14.015 14 17.746zM34 17.746C34 27.739 28.619 32 24 32V9C29.788 9 34 14.015 34 17.746z"/><path fill="#8d6e63" d="M24,5c-5.523,0-11,3.477-11,9c0,4.228,1.569,9,1.569,9S15,19.792,15,17c9.167,0,14-5,14-5
	s0.75,3.833,4,5c0.201,4.312,0.424,6,0.424,6S35,17.562,35,14c0-4.031-1.969-7-6-7C29,7,27.394,5,24,5z"/><path fill="#fff" d="M30 22c0 0-.895 1-2 1s-2-1-2-1 .895-1 2-1S30 22 30 22zM22 22c0 0-.895 1-2 1s-2-1-2-1 .895-1 2-1S22 22 22 22z"/><path fill="#fca230" d="M22.517,25.707c0,0,0.657,0.283,1.483,0.283s1.483-0.283,1.483-0.283S25.057,26.774,24,26.774
	S22.517,25.707,22.517,25.707z"/><path fill="#6d4c41" d="M30.5 19.397c0 0-1.107-.397-2.5-.397s-2-.008-2-.502C26 18.005 26.71 18 28 18 29.782 18 30.5 19.397 30.5 19.397zM17.5 19.397c0 0 1.107-.397 2.5-.397s2-.008 2-.502C22 18.005 21.29 18 20 18 18.218 18 17.5 19.397 17.5 19.397z"/><path fill="#ffcc80" d="M31.842,27H16.158c1.992,3.432,5.052,5,7.842,5S29.849,30.432,31.842,27z"/><path fill="#b0bec5" d="M35.071,42.077l0.846-11C35.962,30.496,35.503,30,34.92,30H13.08c-0.583,0-1.042,0.496-0.997,1.077
	l0.846,11C12.969,42.598,13.403,43,13.926,43h20.148C34.597,43,35.031,42.598,35.071,42.077z"/><circle cx="24" cy="38" r="2" fill="#eceff1"/><path fill="#fb8c00" d="M21.5,27.603c0,0,1.107,0.397,2.5,0.397s2.5-0.397,2.5-0.397S25.485,29,24,29
	S21.5,27.603,21.5,27.603z"/><path fill="#3e2723" d="M20 23c.347 0 .668-.103.952-.238C20.843 22.328 20.468 22 20 22s-.843.328-.952.762C19.332 22.897 19.653 23 20 23zM28 23c.347 0 .668-.103.952-.238C28.843 22.328 28.468 22 28 22s-.843.328-.952.762C27.332 22.897 27.653 23 28 23z"/></svg>